# xmcd CD Database Entry
#
# Track frame offsets:
# 150
# 17259
# 35863
# 55095
# 70172
# 86298
# 105014
# 123040
# 138860
# 153930
# 167658
# 186537
#
# Disc length: 2682 seconds
#
# Revision: 1
# Processed by: cddbd v1.5.2PL0 Copyright (c) Steve Scherf et al.
# Submitted via: RSJCDWriter_freedb_lib_OS/2 1.03
#
DISCID=890a780c
DTITLE=Jessica Andrews - icon (best of +2)
DYEAR=1900
DGENRE=country
TTITLE0=There's More To Me Than You
TTITLE1=Good Time
TTITLE2=Who I Am
TTITLE3=Karma
TTITLE4=Summer Girl
TTITLE5=Unbreakable Heart
TTITLE6=Helplessly Hopelessly
TTITLE7=Good Friend To Me
TTITLE8=I Will Be There For You
TTITLE9=I Do Now
TTITLE10=The Marrying Kind
TTITLE11=You Go First (Do You Wanna Kiss)
EXTD=2010
EXTT0=
EXTT1=
EXTT2=
EXTT3=
EXTT4=?
EXTT5=
EXTT6=
EXTT7=
EXTT8=?
EXTT9=
EXTT10=
EXTT11=
PLAYORDER=
